<svg xmlns="http://www.w3.org/2000/svg" width="226.36" height="35" viewBox="0 0 226.36 35"><rect class="svg__rect" x="0" y="0" width="131.17000000000002" height="35" fill="#31C4F3"/><rect class="svg__rect" x="129.17000000000002" y="0" width="97.19" height="35" fill="#389AD5"/><path class="svg__text" d="M15.70 22L14.22 22L14.22 13.47L17.48 13.47Q18.91 13.47 19.75 14.21Q20.59 14.96 20.59 16.18L20.59 16.18Q20.59 17.44 19.77 18.13Q18.95 18.83 17.46 18.83L17.46 18.83L15.70 18.83L15.70 22ZM15.70 14.66L15.70 17.64L17.48 17.64Q18.27 17.64 18.69 17.27Q19.10 16.90 19.10 16.19L19.10 16.19Q19.10 15.50 18.68 15.09Q18.26 14.68 17.52 14.66L17.52 14.66L15.70 14.66ZM26.36 22L24.88 22L24.88 13.47L27.88 13.47Q29.35 13.47 30.15 14.13Q30.96 14.79 30.96 16.05L30.96 16.05Q30.96 16.90 30.54 17.48Q30.13 18.06 29.39 18.37L29.39 18.37L31.31 21.92L31.31 22L29.72 22L28.01 18.71L26.36 18.71L26.36 22ZM26.36 14.66L26.36 17.52L27.88 17.52Q28.63 17.52 29.05 17.15Q29.48 16.77 29.48 16.11L29.48 16.11Q29.48 15.43 29.09 15.05Q28.70 14.68 27.92 14.66L27.92 14.66L26.36 14.66ZM40.93 22L35.35 22L35.35 13.47L40.89 13.47L40.89 14.66L36.83 14.66L36.83 17.02L40.34 17.02L40.34 18.19L36.83 18.19L36.83 20.82L40.93 20.82L40.93 22ZM52.58 22L51.10 22L51.10 13.47L54.10 13.47Q55.58 13.47 56.38 14.13Q57.18 14.79 57.18 16.05L57.18 16.05Q57.18 16.90 56.77 17.48Q56.36 18.06 55.62 18.37L55.62 18.37L57.54 21.92L57.54 22L55.95 22L54.24 18.71L52.58 18.71L52.58 22ZM52.58 14.66L52.58 17.52L54.11 17.52Q54.86 17.52 55.28 17.15Q55.70 16.77 55.70 16.11L55.70 16.11Q55.70 15.43 55.31 15.05Q54.92 14.68 54.15 14.66L54.15 14.66L52.58 14.66ZM67.16 22L61.58 22L61.58 13.47L67.12 13.47L67.12 14.66L63.06 14.66L63.06 17.02L66.56 17.02L66.56 18.19L63.06 18.19L63.06 20.82L67.16 20.82L67.16 22ZM76.71 22L71.35 22L71.35 13.47L72.83 13.47L72.83 20.82L76.71 20.82L76.71 22ZM86.41 22L80.83 22L80.83 13.47L86.37 13.47L86.37 14.66L82.31 14.66L82.31 17.02L85.82 17.02L85.82 18.19L82.31 18.19L82.31 20.82L86.41 20.82L86.41 22ZM91.39 22L89.84 22L93.07 13.47L94.40 13.47L97.63 22L96.08 22L95.38 20.01L92.08 20.01L91.39 22ZM93.73 15.28L92.49 18.82L94.97 18.82L93.73 15.28ZM101.15 19.42L101.15 19.42L102.63 19.42Q102.63 20.15 103.11 20.55Q103.59 20.95 104.49 20.95L104.49 20.95Q105.26 20.95 105.65 20.63Q106.04 20.32 106.04 19.80L106.04 19.80Q106.04 19.24 105.64 18.94Q105.25 18.63 104.22 18.32Q103.19 18.01 102.58 17.63L102.58 17.63Q101.41 16.90 101.41 15.72L101.41 15.72Q101.41 14.69 102.25 14.02Q103.09 13.35 104.43 13.35L104.43 13.35Q105.32 13.35 106.02 13.68Q106.72 14.01 107.12 14.61Q107.52 15.22 107.52 15.96L107.52 15.96L106.04 15.96Q106.04 15.29 105.62 14.91Q105.20 14.54 104.42 14.54L104.42 14.54Q103.70 14.54 103.29 14.85Q102.89 15.16 102.89 15.71L102.89 15.71Q102.89 16.18 103.33 16.50Q103.76 16.81 104.76 17.10Q105.75 17.40 106.36 17.78Q106.96 18.16 107.24 18.65Q107.52 19.13 107.52 19.79L107.52 19.79Q107.52 20.86 106.70 21.49Q105.89 22.12 104.49 22.12L104.49 22.12Q103.56 22.12 102.78 21.77Q102.01 21.43 101.58 20.83Q101.15 20.22 101.15 19.42ZM117.39 22L111.81 22L111.81 13.47L117.35 13.47L117.35 14.66L113.29 14.66L113.29 17.02L116.80 17.02L116.80 18.19L113.29 18.19L113.29 20.82L117.39 20.82L117.39 22Z" fill="#FFFFFF"/><path class="svg__text" d="M145.74 22L143.36 22L143.36 13.60L147.20 13.60Q148.34 13.60 149.18 13.98Q150.02 14.35 150.48 15.06Q150.93 15.76 150.93 16.71L150.93 16.71Q150.93 17.62 150.51 18.30Q150.08 18.98 149.29 19.36L149.29 19.36L151.10 22L148.56 22L147.03 19.77L145.74 19.77L145.74 22ZM145.74 15.47L145.74 17.93L147.06 17.93Q147.79 17.93 148.16 17.61Q148.53 17.29 148.53 16.71L148.53 16.71Q148.53 16.12 148.16 15.79Q147.79 15.47 147.06 15.47L147.06 15.47L145.74 15.47ZM155.29 17.80L155.29 17.80Q155.29 16.55 155.90 15.55Q156.50 14.56 157.56 14.00Q158.63 13.43 159.96 13.43L159.96 13.43Q161.29 13.43 162.35 14.00Q163.41 14.56 164.02 15.55Q164.63 16.55 164.63 17.80L164.63 17.80Q164.63 19.05 164.02 20.04Q163.41 21.04 162.35 21.60Q161.29 22.17 159.96 22.17L159.96 22.17Q158.63 22.17 157.56 21.60Q156.50 21.04 155.90 20.04Q155.29 19.05 155.29 17.80ZM157.69 17.80L157.69 17.80Q157.69 18.51 157.99 19.05Q158.29 19.60 158.81 19.90Q159.32 20.20 159.96 20.20L159.96 20.20Q160.60 20.20 161.11 19.90Q161.63 19.60 161.93 19.05Q162.23 18.51 162.23 17.80L162.23 17.80Q162.23 17.09 161.93 16.54Q161.63 16 161.11 15.70Q160.60 15.40 159.96 15.40L159.96 15.40Q159.32 15.40 158.81 15.70Q158.29 16 157.99 16.54Q157.69 17.09 157.69 17.80ZM173.90 22L169.36 22L169.36 13.60L173.66 13.60Q175.26 13.60 176.10 14.19Q176.94 14.79 176.94 15.79L176.94 15.79Q176.94 16.39 176.65 16.87Q176.35 17.34 175.81 17.62L175.81 17.62Q176.53 17.87 176.94 18.41Q177.35 18.94 177.35 19.70L177.35 19.70Q177.35 20.80 176.46 21.40Q175.57 22 173.90 22L173.90 22ZM171.71 18.58L171.71 20.28L173.70 20.28Q174.95 20.28 174.95 19.43L174.95 19.43Q174.95 18.58 173.70 18.58L173.70 18.58L171.71 18.58ZM171.71 15.31L171.71 16.94L173.34 16.94Q174.54 16.94 174.54 16.12L174.54 16.12Q174.54 15.31 173.34 15.31L173.34 15.31L171.71 15.31ZM188.45 22L182.06 22L182.06 13.60L184.44 13.60L184.44 20.11L188.45 20.11L188.45 22ZM192.44 17.80L192.44 17.80Q192.44 16.55 193.05 15.55Q193.65 14.56 194.71 14.00Q195.78 13.43 197.11 13.43L197.11 13.43Q198.44 13.43 199.50 14.00Q200.56 14.56 201.17 15.55Q201.78 16.55 201.78 17.80L201.78 17.80Q201.78 19.05 201.17 20.04Q200.56 21.04 199.50 21.60Q198.44 22.17 197.11 22.17L197.11 22.17Q195.78 22.17 194.71 21.60Q193.65 21.04 193.05 20.04Q192.44 19.05 192.44 17.80ZM194.84 17.80L194.84 17.80Q194.84 18.51 195.14 19.05Q195.44 19.60 195.96 19.90Q196.47 20.20 197.11 20.20L197.11 20.20Q197.74 20.20 198.26 19.90Q198.78 19.60 199.07 19.05Q199.37 18.51 199.37 17.80L199.37 17.80Q199.37 17.09 199.07 16.54Q198.78 16 198.26 15.70Q197.74 15.40 197.11 15.40L197.11 15.40Q196.47 15.40 195.95 15.70Q195.44 16 195.14 16.54Q194.84 17.09 194.84 17.80ZM208.36 22L205.64 22L208.70 17.75L205.77 13.60L208.45 13.60L210.13 16.02L211.78 13.60L214.36 13.60L211.43 17.66L214.55 22L211.81 22L210.07 19.40L208.36 22Z" fill="#FFFFFF" x="142.17000000000002"/></svg>