<svg xmlns="http://www.w3.org/2000/svg" width="256.48" height="35" viewBox="0 0 256.48 35"><rect class="svg__rect" x="0" y="0" width="161.29" height="35" fill="#31C4F3"/><rect class="svg__rect" x="159.29" y="0" width="97.19" height="35" fill="#389AD5"/><path class="svg__text" d="M13.78 19.42L13.78 19.42L15.27 19.42Q15.27 20.15 15.75 20.55Q16.23 20.95 17.12 20.95L17.12 20.95Q17.90 20.95 18.29 20.63Q18.68 20.32 18.68 19.80L18.68 19.80Q18.68 19.24 18.28 18.94Q17.89 18.63 16.85 18.32Q15.82 18.01 15.21 17.63L15.21 17.63Q14.05 16.90 14.05 15.72L14.05 15.72Q14.05 14.69 14.89 14.02Q15.73 13.35 17.07 13.35L17.07 13.35Q17.96 13.35 18.66 13.68Q19.36 14.01 19.75 14.61Q20.15 15.22 20.15 15.96L20.15 15.96L18.68 15.96Q18.68 15.29 18.26 14.91Q17.84 14.54 17.06 14.54L17.06 14.54Q16.33 14.54 15.93 14.85Q15.53 15.16 15.53 15.71L15.53 15.71Q15.53 16.18 15.96 16.50Q16.40 16.81 17.39 17.10Q18.39 17.40 18.99 17.78Q19.60 18.16 19.88 18.65Q20.16 19.13 20.16 19.79L20.16 19.79Q20.16 20.86 19.34 21.49Q18.52 22.12 17.12 22.12L17.12 22.12Q16.20 22.12 15.42 21.77Q14.64 21.43 14.21 20.83Q13.78 20.22 13.78 19.42ZM26.13 14.66L23.49 14.66L23.49 13.47L30.26 13.47L30.26 14.66L27.60 14.66L27.60 22L26.13 22L26.13 14.66ZM34.80 22L33.25 22L36.48 13.47L37.81 13.47L41.04 22L39.49 22L38.79 20.01L35.49 20.01L34.80 22ZM37.14 15.28L35.90 18.82L38.38 18.82L37.14 15.28ZM48.10 22L44.99 22L44.99 13.47L47.91 13.47Q49.36 13.47 50.12 14.05Q50.87 14.63 50.87 15.78L50.87 15.78Q50.87 16.36 50.56 16.83Q50.24 17.30 49.63 17.56L49.63 17.56Q50.32 17.75 50.70 18.26Q51.08 18.78 51.08 19.51L51.08 19.51Q51.08 20.71 50.31 21.36Q49.54 22 48.10 22L48.10 22ZM46.47 18.15L46.47 20.82L48.12 20.82Q48.82 20.82 49.21 20.47Q49.60 20.13 49.60 19.51L49.60 19.51Q49.60 18.18 48.24 18.15L48.24 18.15L46.47 18.15ZM46.47 14.66L46.47 17.06L47.93 17.06Q48.62 17.06 49.01 16.75Q49.40 16.43 49.40 15.86L49.40 15.86Q49.40 15.23 49.04 14.95Q48.68 14.66 47.91 14.66L47.91 14.66L46.47 14.66ZM60.90 22L55.55 22L55.55 13.47L57.03 13.47L57.03 20.82L60.90 20.82L60.90 22ZM70.61 22L65.03 22L65.03 13.47L70.57 13.47L70.57 14.66L66.51 14.66L66.51 17.02L70.02 17.02L70.02 18.19L66.51 18.19L66.51 20.82L70.61 20.82L70.61 22ZM82.26 22L80.78 22L80.78 13.47L83.78 13.47Q85.26 13.47 86.06 14.13Q86.86 14.79 86.86 16.05L86.86 16.05Q86.86 16.90 86.45 17.48Q86.04 18.06 85.30 18.37L85.30 18.37L87.21 21.92L87.21 22L85.63 22L83.91 18.71L82.26 18.71L82.26 22ZM82.26 14.66L82.26 17.52L83.79 17.52Q84.54 17.52 84.96 17.15Q85.38 16.77 85.38 16.11L85.38 16.11Q85.38 15.43 84.99 15.05Q84.60 14.68 83.83 14.66L83.83 14.66L82.26 14.66ZM96.83 22L91.26 22L91.26 13.47L96.79 13.47L96.79 14.66L92.74 14.66L92.74 17.02L96.24 17.02L96.24 18.19L92.74 18.19L92.74 20.82L96.83 20.82L96.83 22ZM106.39 22L101.03 22L101.03 13.47L102.51 13.47L102.51 20.82L106.39 20.82L106.39 22ZM116.09 22L110.51 22L110.51 13.47L116.05 13.47L116.05 14.66L111.99 14.66L111.99 17.02L115.50 17.02L115.50 18.19L111.99 18.19L111.99 20.82L116.09 20.82L116.09 22ZM121.06 22L119.52 22L122.74 13.47L124.07 13.47L127.30 22L125.76 22L125.06 20.01L121.75 20.01L121.06 22ZM123.41 15.28L122.17 18.82L124.64 18.82L123.41 15.28ZM130.82 19.42L130.82 19.42L132.31 19.42Q132.31 20.15 132.79 20.55Q133.27 20.95 134.16 20.95L134.16 20.95Q134.94 20.95 135.33 20.63Q135.72 20.32 135.72 19.80L135.72 19.80Q135.72 19.24 135.32 18.94Q134.93 18.63 133.89 18.32Q132.86 18.01 132.25 17.63L132.25 17.63Q131.09 16.90 131.09 15.72L131.09 15.72Q131.09 14.69 131.93 14.02Q132.77 13.35 134.11 13.35L134.11 13.35Q135.00 13.35 135.70 13.68Q136.40 14.01 136.80 14.61Q137.19 15.22 137.19 15.96L137.19 15.96L135.72 15.96Q135.72 15.29 135.30 14.91Q134.88 14.54 134.10 14.54L134.10 14.54Q133.37 14.54 132.97 14.85Q132.57 15.16 132.57 15.71L132.57 15.71Q132.57 16.18 133.00 16.50Q133.44 16.81 134.43 17.10Q135.43 17.40 136.03 17.78Q136.64 18.16 136.92 18.65Q137.20 19.13 137.20 19.79L137.20 19.79Q137.20 20.86 136.38 21.49Q135.56 22.12 134.16 22.12L134.16 22.12Q133.24 22.12 132.46 21.77Q131.69 21.43 131.26 20.83Q130.82 20.22 130.82 19.42ZM147.07 22L141.49 22L141.49 13.47L147.03 13.47L147.03 14.66L142.97 14.66L142.97 17.02L146.47 17.02L146.47 18.19L142.97 18.19L142.97 20.82L147.07 20.82L147.07 22Z" fill="#FFFFFF"/><path class="svg__text" d="M175.86 22L173.48 22L173.48 13.60L177.32 13.60Q178.46 13.60 179.30 13.98Q180.14 14.35 180.60 15.06Q181.05 15.76 181.05 16.71L181.05 16.71Q181.05 17.62 180.63 18.30Q180.20 18.98 179.41 19.36L179.41 19.36L181.22 22L178.68 22L177.15 19.77L175.86 19.77L175.86 22ZM175.86 15.47L175.86 17.93L177.18 17.93Q177.91 17.93 178.28 17.61Q178.65 17.29 178.65 16.71L178.65 16.71Q178.65 16.12 178.28 15.79Q177.91 15.47 177.18 15.47L177.18 15.47L175.86 15.47ZM185.41 17.80L185.41 17.80Q185.41 16.55 186.02 15.55Q186.62 14.56 187.68 14.00Q188.75 13.43 190.08 13.43L190.08 13.43Q191.41 13.43 192.47 14.00Q193.53 14.56 194.14 15.55Q194.75 16.55 194.75 17.80L194.75 17.80Q194.75 19.05 194.14 20.04Q193.53 21.04 192.47 21.60Q191.41 22.17 190.08 22.17L190.08 22.17Q188.75 22.17 187.68 21.60Q186.62 21.04 186.02 20.04Q185.41 19.05 185.41 17.80ZM187.81 17.80L187.81 17.80Q187.81 18.51 188.11 19.05Q188.41 19.60 188.93 19.90Q189.44 20.20 190.08 20.20L190.08 20.20Q190.72 20.20 191.23 19.90Q191.75 19.60 192.05 19.05Q192.35 18.51 192.35 17.80L192.35 17.80Q192.35 17.09 192.05 16.54Q191.75 16 191.23 15.70Q190.72 15.40 190.08 15.40L190.08 15.40Q189.44 15.40 188.93 15.70Q188.41 16 188.11 16.54Q187.81 17.09 187.81 17.80ZM204.02 22L199.48 22L199.48 13.60L203.78 13.60Q205.38 13.60 206.22 14.19Q207.06 14.79 207.06 15.79L207.06 15.79Q207.06 16.39 206.77 16.87Q206.47 17.34 205.93 17.62L205.93 17.62Q206.65 17.87 207.06 18.41Q207.47 18.94 207.47 19.70L207.47 19.70Q207.47 20.80 206.58 21.40Q205.69 22 204.02 22L204.02 22ZM201.83 18.58L201.83 20.28L203.82 20.28Q205.07 20.28 205.07 19.43L205.07 19.43Q205.07 18.58 203.82 18.58L203.82 18.58L201.83 18.58ZM201.83 15.31L201.83 16.94L203.46 16.94Q204.66 16.94 204.66 16.12L204.66 16.12Q204.66 15.31 203.46 15.31L203.46 15.31L201.83 15.31ZM218.57 22L212.18 22L212.18 13.60L214.56 13.60L214.56 20.11L218.57 20.11L218.57 22ZM222.56 17.80L222.56 17.80Q222.56 16.55 223.17 15.55Q223.77 14.56 224.83 14.00Q225.90 13.43 227.23 13.43L227.23 13.43Q228.56 13.43 229.62 14.00Q230.68 14.56 231.29 15.55Q231.90 16.55 231.90 17.80L231.90 17.80Q231.90 19.05 231.29 20.04Q230.68 21.04 229.62 21.60Q228.56 22.17 227.23 22.17L227.23 22.17Q225.90 22.17 224.83 21.60Q223.77 21.04 223.17 20.04Q222.56 19.05 222.56 17.80ZM224.96 17.80L224.96 17.80Q224.96 18.51 225.26 19.05Q225.56 19.60 226.08 19.90Q226.59 20.20 227.23 20.20L227.23 20.20Q227.86 20.20 228.38 19.90Q228.90 19.60 229.19 19.05Q229.49 18.51 229.49 17.80L229.49 17.80Q229.49 17.09 229.19 16.54Q228.90 16 228.38 15.70Q227.86 15.40 227.23 15.40L227.23 15.40Q226.59 15.40 226.07 15.70Q225.56 16 225.26 16.54Q224.96 17.09 224.96 17.80ZM238.48 22L235.76 22L238.82 17.75L235.89 13.60L238.57 13.60L240.25 16.02L241.90 13.60L244.48 13.60L241.55 17.66L244.67 22L241.93 22L240.19 19.40L238.48 22Z" fill="#FFFFFF" x="172.29"/></svg>